<mxfile host="app.diagrams.net" modified="2024-04-25T18:59:53.086Z" agent="Mozilla/5.0 (Macintosh; Intel Mac OS X 10_15_7) AppleWebKit/537.36 (KHTML, like Gecko) Chrome/124.0.0.0 Safari/537.36" etag="8bNLNimr2fp2nHGWIijL" version="24.2.8" type="device">
  <diagram name="Page-1" id="unOpJkHi4P4wmU6nT3U4">
    <mxGraphModel dx="923" dy="593" grid="1" gridSize="10" guides="1" tooltips="1" connect="1" arrows="1" fold="1" page="1" pageScale="1" pageWidth="827" pageHeight="1169" math="0" shadow="0">
      <root>
        <mxCell id="0" />
        <mxCell id="1" parent="0" />
        <mxCell id="1tZ80hy66V-xwq_e3CZC-1" value="Користувач" style="shape=umlActor;verticalLabelPosition=bottom;verticalAlign=top;html=1;outlineConnect=0;" vertex="1" parent="1">
          <mxGeometry x="80" y="240" width="30" height="60" as="geometry" />
        </mxCell>
        <mxCell id="1tZ80hy66V-xwq_e3CZC-3" value="Додаток &quot;Трекер-&lt;div&gt;щоденник&quot;&lt;/div&gt;" style="shape=umlActor;verticalLabelPosition=bottom;verticalAlign=top;html=1;outlineConnect=0;" vertex="1" parent="1">
          <mxGeometry x="690" y="230" width="30" height="60" as="geometry" />
        </mxCell>
        <mxCell id="1tZ80hy66V-xwq_e3CZC-7" value="" style="rounded=0;whiteSpace=wrap;html=1;" vertex="1" parent="1">
          <mxGeometry x="150" y="50" width="450" height="490" as="geometry" />
        </mxCell>
        <mxCell id="1tZ80hy66V-xwq_e3CZC-11" value="Завантажує додаток" style="ellipse;whiteSpace=wrap;html=1;" vertex="1" parent="1">
          <mxGeometry x="180" y="100" width="150" height="50" as="geometry" />
        </mxCell>
        <mxCell id="1tZ80hy66V-xwq_e3CZC-14" value="Створення оптимального. плану" style="ellipse;whiteSpace=wrap;html=1;align=center;dashed=1;" vertex="1" parent="1">
          <mxGeometry x="440" y="80" width="130" height="60" as="geometry" />
        </mxCell>
        <mxCell id="1tZ80hy66V-xwq_e3CZC-15" value="Налаштування сповіщень про звички" style="ellipse;whiteSpace=wrap;html=1;align=center;dashed=1;" vertex="1" parent="1">
          <mxGeometry x="440" y="205" width="130" height="60" as="geometry" />
        </mxCell>
        <mxCell id="1tZ80hy66V-xwq_e3CZC-17" value="Додає бажанні звички" style="ellipse;whiteSpace=wrap;html=1;" vertex="1" parent="1">
          <mxGeometry x="180" y="180" width="150" height="60" as="geometry" />
        </mxCell>
        <mxCell id="1tZ80hy66V-xwq_e3CZC-19" value="Виконує звички в реальному житті й відмічає у додатку&lt;br&gt;&lt;br&gt;Теж саме з емоціями" style="ellipse;whiteSpace=wrap;html=1;" vertex="1" parent="1">
          <mxGeometry x="170" y="265" width="190" height="145" as="geometry" />
        </mxCell>
        <mxCell id="1tZ80hy66V-xwq_e3CZC-21" value="Формування статистики та прогресу" style="ellipse;whiteSpace=wrap;html=1;align=center;dashed=1;" vertex="1" parent="1">
          <mxGeometry x="440" y="300" width="130" height="60" as="geometry" />
        </mxCell>
        <mxCell id="1tZ80hy66V-xwq_e3CZC-26" value="Extends" style="endArrow=block;endSize=16;endFill=0;html=1;rounded=0;entryX=1.006;entryY=0.416;entryDx=0;entryDy=0;entryPerimeter=0;" edge="1" parent="1" source="1tZ80hy66V-xwq_e3CZC-3" target="1tZ80hy66V-xwq_e3CZC-7">
          <mxGeometry width="160" relative="1" as="geometry">
            <mxPoint x="420" y="360" as="sourcePoint" />
            <mxPoint x="580" y="360" as="targetPoint" />
          </mxGeometry>
        </mxCell>
        <mxCell id="1tZ80hy66V-xwq_e3CZC-31" value="include" style="endArrow=block;endSize=16;endFill=0;html=1;rounded=0;exitX=0.5;exitY=1;exitDx=0;exitDy=0;" edge="1" parent="1" source="1tZ80hy66V-xwq_e3CZC-14" target="1tZ80hy66V-xwq_e3CZC-15">
          <mxGeometry x="0.0009" width="160" relative="1" as="geometry">
            <mxPoint x="480" y="402" as="sourcePoint" />
            <mxPoint x="360" y="300" as="targetPoint" />
            <mxPoint as="offset" />
          </mxGeometry>
        </mxCell>
        <mxCell id="1tZ80hy66V-xwq_e3CZC-32" value="include" style="endArrow=block;endSize=16;endFill=0;html=1;rounded=0;exitX=1;exitY=0.5;exitDx=0;exitDy=0;" edge="1" parent="1" source="1tZ80hy66V-xwq_e3CZC-17" target="1tZ80hy66V-xwq_e3CZC-14">
          <mxGeometry x="0.0009" width="160" relative="1" as="geometry">
            <mxPoint x="440" y="150" as="sourcePoint" />
            <mxPoint x="360" y="205" as="targetPoint" />
            <mxPoint as="offset" />
          </mxGeometry>
        </mxCell>
        <mxCell id="1tZ80hy66V-xwq_e3CZC-35" value="Спостерігає за прогрессом" style="ellipse;whiteSpace=wrap;html=1;" vertex="1" parent="1">
          <mxGeometry x="190" y="430" width="150" height="80" as="geometry" />
        </mxCell>
        <mxCell id="1tZ80hy66V-xwq_e3CZC-37" value="include" style="endArrow=block;endSize=16;endFill=0;html=1;rounded=0;exitX=1;exitY=0.5;exitDx=0;exitDy=0;" edge="1" parent="1" target="1tZ80hy66V-xwq_e3CZC-19">
          <mxGeometry x="0.0009" width="160" relative="1" as="geometry">
            <mxPoint x="440" y="240" as="sourcePoint" />
            <mxPoint x="549" y="165" as="targetPoint" />
            <mxPoint as="offset" />
          </mxGeometry>
        </mxCell>
        <mxCell id="1tZ80hy66V-xwq_e3CZC-38" value="include" style="endArrow=block;endSize=16;endFill=0;html=1;rounded=0;exitX=1;exitY=0.5;exitDx=0;exitDy=0;" edge="1" parent="1" target="1tZ80hy66V-xwq_e3CZC-35">
          <mxGeometry x="0.0009" width="160" relative="1" as="geometry">
            <mxPoint x="492" y="360" as="sourcePoint" />
            <mxPoint x="400" y="418" as="targetPoint" />
            <mxPoint as="offset" />
          </mxGeometry>
        </mxCell>
      </root>
    </mxGraphModel>
  </diagram>
</mxfile>
